<svg width="20" height="28" viewBox="0 0 20 28" fill="none" xmlns="http://www.w3.org/2000/svg">
<path d="M18.605 0H14.42C14.05 0 13.6952 0.152586 13.4335 0.42419C13.1719 0.695795 13.025 1.06417 13.025 1.44828C13.025 1.83238 13.1719 2.20076 13.4335 2.47236C13.6952 2.74397 14.05 2.89655 14.42 2.89655H15.2337L13.49 4.71897C12.0296 3.53406 10.2284 2.89232 8.37493 2.89655C6.27538 2.89529 4.25204 3.71325 2.7062 5.18823C1.16035 6.66321 0.204901 8.68747 0.0293323 10.8596C-0.146237 13.0316 0.470899 15.1929 1.75835 16.9147C3.0458 18.6365 4.90953 19.7932 6.97992 20.1552V21.7241H4.65491C4.28493 21.7241 3.9301 21.8767 3.66849 22.1483C3.40687 22.4199 3.2599 22.7883 3.2599 23.1724C3.2599 23.5565 3.40687 23.9249 3.66849 24.1965C3.9301 24.4681 4.28493 24.6207 4.65491 24.6207H6.97992V26.5517C6.97992 26.9358 7.12689 27.3042 7.38851 27.5758C7.65012 27.8474 8.00495 28 8.37493 28C8.74491 28 9.09973 27.8474 9.36135 27.5758C9.62296 27.3042 9.76994 26.9358 9.76994 26.5517V24.6207H12.095C12.4649 24.6207 12.8198 24.4681 13.0814 24.1965C13.343 23.9249 13.49 23.5565 13.49 23.1724C13.49 22.7883 13.343 22.4199 13.0814 22.1483C12.8198 21.8767 12.4649 21.7241 12.095 21.7241H9.76994V20.1552C11.139 19.9145 12.4289 19.3239 13.5234 18.4368C14.6179 17.5496 15.4826 16.3937 16.0396 15.0731C16.5966 13.7526 16.8284 12.3089 16.7141 10.8722C16.5998 9.43549 16.143 8.05087 15.3848 6.8431L17.21 4.94828V5.7931C17.21 6.17721 17.357 6.54558 17.6186 6.81719C17.8802 7.08879 18.235 7.24138 18.605 7.24138C18.975 7.24138 19.3298 7.08879 19.5914 6.81719C19.853 6.54558 20 6.17721 20 5.7931V1.44828C20 1.06417 19.853 0.695795 19.5914 0.42419C19.3298 0.152586 18.975 0 18.605 0ZM8.37493 17.3793C7.2713 17.3793 6.19246 17.0396 5.27483 16.403C4.3572 15.7664 3.64199 14.8617 3.21965 13.8031C2.79731 12.7446 2.68681 11.5798 2.90211 10.456C3.11742 9.33228 3.64887 8.30004 4.42925 7.48986C5.20963 6.67968 6.2039 6.12794 7.28632 5.90442C8.36874 5.68089 9.4907 5.79561 10.5103 6.23408C11.5299 6.67254 12.4014 7.41506 13.0146 8.36773C13.6277 9.3204 13.955 10.4404 13.955 11.5862C13.955 13.1226 13.3671 14.5961 12.3206 15.6826C11.2742 16.769 9.85485 17.3793 8.37493 17.3793Z" fill="black"/>
</svg>
