<svg width="26" height="26" viewBox="0 0 26 26" fill="none" xmlns="http://www.w3.org/2000/svg">
<path d="M6.49999 3.25C6.21267 3.25 5.93712 3.36414 5.73396 3.5673C5.53079 3.77047 5.41666 4.04602 5.41666 4.33333C5.41666 4.62065 5.53079 4.8962 5.73396 5.09937C5.93712 5.30253 6.21267 5.41667 6.49999 5.41667H19.5C19.7873 5.41667 20.0629 5.30253 20.266 5.09937C20.4692 4.8962 20.5833 4.62065 20.5833 4.33333C20.5833 4.04602 20.4692 3.77047 20.266 3.5673C20.0629 3.36414 19.7873 3.25 19.5 3.25H6.49999ZM11.2168 14.8428L11.3241 14.9348L12.1897 15.8015V13.6814L12.1875 13.6532V10.1985L11.3208 11.0652L11.2157 11.1572L11.2071 11.1638C10.9984 11.3193 10.7406 11.3946 10.481 11.3757C10.2214 11.3569 9.97723 11.2451 9.79323 11.061C9.60922 10.8769 9.49768 10.6326 9.47899 10.373C9.46031 10.1134 9.53574 9.85566 9.69149 9.64708L9.69799 9.6395L9.78899 9.53333L12.3392 6.97992C12.5342 6.68417 12.8862 6.5 13.2708 6.5C13.6218 6.5 13.9425 6.65167 14.144 6.89867L14.1494 6.90625L14.1992 6.97558L16.7537 9.53333L16.8458 9.6395L16.8512 9.64817C16.9876 9.83225 17.0622 10.0548 17.0641 10.2839C17.0661 10.5131 16.9953 10.7369 16.8621 10.9233L16.8556 10.9319L16.7483 11.0587L16.6335 11.1572L16.6259 11.1638C16.4418 11.3002 16.2192 11.3747 15.9901 11.3766C15.761 11.3786 15.5372 11.3078 15.3508 11.1746L15.3411 11.167L15.2219 11.0663L14.3542 10.1985V12.3186L14.3563 12.3468V15.8026L15.2165 14.9413C15.4001 14.7574 15.6436 14.6457 15.9027 14.6264C16.1619 14.6071 16.4193 14.6816 16.6281 14.8363L16.6357 14.8428L16.7418 14.9348L16.7494 14.9413C16.9329 15.125 17.0443 15.3684 17.0633 15.6273C17.0824 15.8861 17.0079 16.1433 16.8534 16.3518L16.848 16.3605L16.7559 16.4667L14.2057 19.019C14.1022 19.1698 13.963 19.2927 13.8004 19.3766C13.6378 19.4606 13.457 19.503 13.2741 19.5C12.8884 19.5 12.5363 19.3158 12.3424 19.0201L9.79874 16.4742C9.60344 16.2813 9.48866 16.0215 9.47759 15.7472C9.46653 15.4729 9.56001 15.2046 9.73913 14.9966C9.91826 14.7886 10.1697 14.6563 10.4426 14.6266C10.7155 14.5968 10.9895 14.6717 11.2092 14.8363L11.2179 14.8428H11.2168ZM5.41666 21.6667C5.41666 21.3793 5.53079 21.1038 5.73396 20.9006C5.93712 20.6975 6.21267 20.5833 6.49999 20.5833H19.5C19.7873 20.5833 20.0629 20.6975 20.266 20.9006C20.4692 21.1038 20.5833 21.3793 20.5833 21.6667C20.5833 21.954 20.4692 22.2295 20.266 22.4327C20.0629 22.6359 19.7873 22.75 19.5 22.75H6.49999C6.21267 22.75 5.93712 22.6359 5.73396 22.4327C5.53079 22.2295 5.41666 21.954 5.41666 21.6667Z" fill="black"/>
</svg>
