<svg width="22" height="22" viewBox="0 0 22 22" fill="none" xmlns="http://www.w3.org/2000/svg">
<path d="M21.9261 19.158L18.7881 6.60529C18.6248 5.95258 18.0817 5.50011 17.4617 5.50011H14.8728C15.0262 5.06826 15.1254 4.60978 15.1254 4.12508C15.1254 1.84683 13.2786 0 11.0004 0C8.72222 0 6.87542 1.84683 6.87542 4.12508C6.87542 4.60978 6.97424 5.06826 7.12807 5.50011H4.5392C3.91916 5.50011 3.3756 5.95301 3.21275 6.60529L0.0738705 19.158C-0.28406 20.5893 0.703794 22 2.06376 22H19.9367C21.2962 22 22.2841 20.5893 21.9261 19.158ZM11 5.49968C10.242 5.49968 9.625 4.88263 9.625 4.12465C9.625 3.36667 10.242 2.74962 11 2.74962C11.758 2.74962 12.375 3.36667 12.375 4.12465C12.375 4.88263 11.758 5.49968 11 5.49968Z" fill="black"/>
</svg>
